<?xml version="1.0" encoding="UTF-8"?>
<svg id="Layer_1" data-name="Layer 1" xmlns="http://www.w3.org/2000/svg" version="1.1" viewBox="0 0 32 32">
  <defs>
    <style>
      .cls-1 {
        fill: #f69434;
        stroke-width: 0px;
      }
    </style>
  </defs>
  <path class="cls-1" d="M20.77,11.43c-.01.83-.18,1.53-.38,2.23-.55,1.93-1.36,3.76-2.31,5.52-.72,1.34-1.53,2.65-2.28,3.98-.29.52-.65,1.01-.76,1.61-.1.56.06,1.07.38,1.51.24.33.77.33,1.24.05.75-.46,1.25-1.17,1.77-1.85.88-1.15,1.63-2.39,2.54-3.51.61-.76,1.27-1.47,2.15-1.96,1.06-.59,2.13-.59,3.22-.1.94.43,1.72,1.02,2.17,1.98.25.55.26,1.13.22,1.71-.06.73-.35,1.37-.7,2-.17.29-.28.3-.54.08-.35-.31-.67-.67-1.09-.88-.79-.4-1.75-.04-2.14.69-.7,1.31-1.49,2.55-2.58,3.57-1.2,1.13-2.59,1.93-4.29,1.86-1.58-.07-3.09-.48-4.36-1.48-1.24-.98-1.6-2.33-1.42-3.86.11-.96.57-1.78.99-2.62.31-.62.63-1.23.93-1.85.09-.18.08-.33-.16-.44-1.18-.53-2.36-1.08-3.54-1.63-.69-.32-1.3-.74-1.67-1.44-.24-.47-.36-.97-.39-1.49-.02-.4,0-.8-.01-1.2,0-.24.08-.27.28-.17,1.37.63,2.74,1.26,4.12,1.89.85.39,1.71.78,2.56,1.16.22.1.4.12.51-.17.08-.21.2-.39.29-.59.07-.16.02-.25-.14-.33-1.17-.53-2.33-1.06-3.49-1.59-1.49-.69-2.97-1.39-4.46-2.08-.77-.36-1.4-.84-1.73-1.65-.14-.35-.23-.71-.26-1.07-.04-.46-.02-.93-.02-1.39,0-.17.02-.26.24-.16,1.17.55,2.36,1.09,3.54,1.63.74.34,1.47.69,2.22,1,1.09.44,2.11,1.03,3.2,1.47.58.23,1.14.52,1.71.78.06.03.11.08.18.02.05-.05.06-.12.03-.18-.07-.19-.07-.44-.36-.46-.07,0-.09-.07-.08-.13.01-.34-.23-.51-.47-.67-.59-.4-1.27-.64-1.91-.94-1.82-.86-3.65-1.71-5.5-2.51-.39-.17-.78-.36-1.17-.54-.35-.16-.71-.35-1.06-.51-.5-.23-1-.46-1.45-.77-.61-.42-.98-1.02-1.13-1.76-.12-.6-.12-1.22-.14-1.83-.01-.27.09-.35.33-.24,1.33.62,2.67,1.2,3.99,1.84,1.13.55,2.27,1.06,3.41,1.58,1.42.65,2.84,1.3,4.27,1.94,1.55.7,3.11,1.39,4.67,2.1.38.17.62.48.7.87.08.35.17.71.13.97Z"/>
</svg>