<?xml version="1.0" encoding="UTF-8"?>
<svg id="Layer_1" data-name="Layer 1" xmlns="http://www.w3.org/2000/svg" version="1.1" viewBox="0 0 1600 1131">
  <defs>
    <style>
      .cls-1 {
        fill: #f69434;
      }

      .cls-1, .cls-2 {
        stroke-width: 0px;
      }

      .cls-2 {
        fill: #fff;
      }
    </style>
  </defs>
  <path class="cls-1" d="M409.13,488.52c-.24,14-3.07,25.79-6.38,37.52-9.18,32.58-22.93,63.3-38.91,92.97-12.2,22.64-25.73,44.56-38.4,66.96-4.93,8.71-11,16.96-12.84,27.15-1.71,9.44.96,17.95,6.43,25.48,4.06,5.58,13,5.56,20.83.76,12.67-7.76,21.01-19.67,29.78-31.11,14.8-19.32,27.45-40.22,42.77-59.16,10.35-12.79,21.45-24.79,36.18-32.94,17.9-9.9,35.88-9.91,54.18-1.61,15.79,7.16,29.05,17.19,36.59,33.38,4.28,9.2,4.43,19.02,3.67,28.88-.95,12.23-5.84,23.13-11.76,33.62-2.79,4.95-4.76,5.11-9.06,1.32-5.91-5.21-11.22-11.24-18.36-14.86-13.38-6.78-29.55-.62-36.1,11.64-11.76,22.02-25.08,42.91-43.38,60.13-20.29,19.1-43.65,32.51-72.34,31.29-26.6-1.13-52.1-8.05-73.39-24.96-20.84-16.56-27-39.23-23.95-65.04,1.91-16.13,9.6-29.99,16.65-44.13,5.18-10.39,10.53-20.7,15.59-31.14,1.46-3.01,1.41-5.57-2.7-7.41-19.95-8.95-39.76-18.23-59.58-27.47-11.61-5.41-21.94-12.4-28.06-24.18-4.07-7.84-6.04-16.32-6.56-25.06-.4-6.7-.02-13.43-.22-20.15-.12-4.06,1.33-4.48,4.72-2.91,23.09,10.66,46.22,21.25,69.36,31.82,14.38,6.57,28.77,13.11,43.19,19.59,3.62,1.63,6.82,1.99,8.59-2.88,1.27-3.47,3.36-6.63,4.95-9.99,1.24-2.63.31-4.27-2.38-5.49-19.64-8.88-39.27-17.79-58.82-26.85-25.06-11.61-50.02-23.44-75.1-35.02-12.96-5.98-23.58-14.19-29.17-27.86-2.38-5.82-3.84-11.88-4.31-18.03-.59-7.77-.3-15.61-.33-23.42-.01-2.87.34-4.42,4.09-2.66,19.79,9.3,39.72,18.3,59.62,27.37,12.41,5.66,24.69,11.67,37.33,16.77,18.36,7.41,35.53,17.36,53.91,24.73,9.77,3.92,19.21,8.69,28.77,13.13,1,.47,1.91,1.27,2.96.35.92-.81.99-2,.58-3.04-1.24-3.16-1.14-7.41-6.1-7.69-1.15-.06-1.47-1.22-1.43-2.12.25-5.77-3.8-8.51-7.84-11.22-9.99-6.7-21.31-10.77-32.1-15.85-30.7-14.47-61.52-28.72-92.64-42.26-6.6-2.87-13.11-6.1-19.63-9.08-5.95-2.72-11.91-5.82-17.92-8.52-8.46-3.79-16.9-7.74-24.44-12.97-10.23-7.09-16.57-17.19-18.96-29.68-1.95-10.18-2.03-20.47-2.42-30.75-.17-4.6,1.52-5.94,5.64-4.01,22.34,10.46,44.99,20.22,67.16,31.06,18.96,9.27,38.29,17.77,57.49,26.55,23.94,10.94,47.88,21.87,71.87,32.7,26.18,11.82,52.43,23.49,78.61,35.3,6.37,2.87,10.39,8.16,11.83,14.73,1.29,5.88,2.88,11.88,2.24,16.34Z"/>
  <g>
    <path class="cls-2" d="M672.47,477.5c-6.49.14-13.01.27-19.48-.03-3.83-.18-5.18.96-5.84,4.91-4.21,25.1-8.64,50.16-13.25,75.19-2.29,12.46-11.11,15.41-20.72,7.25-.39-.34-.84-.62-1.16-1-1.84-2.21-3.23-2.19-5.07.29-3.55,4.75-7.46,9.25-11.31,13.96-1.45-1.63-1.41-3.35-1.69-4.96-5.28-30.29-10.6-60.58-15.73-90.9-.6-3.52-1.65-4.94-5.45-4.75-7,.34-14.02.25-21.03.04-2.98-.09-4.51.93-5.9,3.59-18.44,35.28-37.01,70.49-55.52,105.74-.68,1.29-1.95,2.45-1.34,4.48,8.65,0,17.36-.12,26.06.07,2.85.07,4.29-.92,5.4-3.45,2.81-6.42,5.92-12.69,8.79-19.08,1.01-2.26,2.23-3.36,4.94-3.3,8.54.2,17.1.22,25.64-.01,3.01-.08,3.75,1.2,4.02,3.75.66,6.12,1.64,12.2,2.17,18.32.25,2.85,1.29,3.81,4.12,3.75,6.32-.16,12.66-.04,18.98-.04q7.53-.01,6.91-7.2c-.04-.53-.39-1.4.62-1.6,13.52,9.28,19.17,11.24,31.59,10.99,14.97-.29,29.63-10.85,32.09-24.04,5.46-29.4,10.43-58.88,15.68-88.31.57-3.23-.73-3.71-3.49-3.65ZM559.43,545.48c-5.8-.12-11.6-.11-17.4,0-2.58.04-3.4-.51-2.18-3.16,6.16-13.28,12.2-26.62,18.65-40.75,1.42,14.04,2.67,27.24,4.16,40.42.33,2.9-.61,3.55-3.23,3.49Z"/>
    <path class="cls-2" d="M1228.75,513c-1.65,18.48-5.48,35.16-8.12,52.03-1.08,6.92-2.67,13.8-3.28,20.76-.43,4.85-2.59,5.84-6.87,5.59-5.28-.31-10.6-.07-15.9-.08-6.2-.01-6.25-.03-5.19-5.95,4.91-27.58,9.85-55.16,14.76-82.75,1.26-7.07,2.59-14.13,3.57-21.24.42-3.03,1.62-3.95,4.61-3.87,7.35.2,14.71.17,22.06,0,2.61-.06,3.97.83,5.07,3.19,9.81,21.06,19.74,42.06,29.64,63.08,1.91,4.05,2.76,8.42,4.14,12.82.92-5.18,1.22-10.42,2.13-15.56,3.5-19.86,6.88-39.73,10.09-59.64.49-3.02,1.43-4,4.48-3.9,6.49.23,13.01.29,19.49-.01,3.93-.18,4.51,1.2,3.87,4.73-4.95,27.58-9.75,55.19-14.61,82.78-1.3,7.4-2.77,14.77-3.97,22.18-.48,2.99-1.55,4.36-4.9,4.23-7.17-.28-14.37-.2-21.55-.04-2.72.06-4.27-.65-5.52-3.29-9.84-20.87-19.92-41.61-29.76-62.48-1.7-3.61-2.59-7.6-4.24-12.57Z"/>
    <path class="cls-2" d="M1031.7,540.22c14.36-2.46,25.46-13.56,28.34-28.04,4.55-22.8-5.03-34.64-28.03-34.64-13.85,0-27.69.11-41.54-.07-3.65-.05-5.26.72-5.94,4.75-6.02,35.19-12.27,70.32-18.61,105.45-.62,3.42.68,3.7,3.37,3.65,6.84-.1,13.68-.18,20.52.03,3.23.1,4.34-1,4.87-4.21,2.08-12.79,4.53-25.52,6.83-38.27.36,0,.72.01,1.07.01,4.66,10.42,10.09,20.58,13.74,31.34,3.12,9.16,8.01,12.49,17.49,11.24,6.76-.88,13.73-.16,21.32-.16-1.13-2.17-1.71-3.37-2.36-4.53-7.71-13.89-15.36-27.82-23.2-41.62-1.75-3.07-1.56-4.29,2.15-4.93ZM1020.19,528.04c-3.7.56-7.5.3-11.25.6-2.96.24-3.98-.73-3.4-3.79,1.48-7.72,2.8-15.46,4.03-23.22.35-2.2,1.41-2.87,3.43-2.77,1.71.08,3.42.01,5.13.01v.02c.34,0,.69,0,1.03.01,10.14.29,14.55,3.29,14.94,10.19.51,8.91-5.78,17.7-13.91,18.95Z"/>
    <path class="cls-2" d="M740.1,540.26c12.74-1.8,20.95-9.78,25.98-20.84,10.96-24.1-.6-41.87-26.79-41.87-11.28,0-22.56-.01-33.84,0-11.4,0-11.55-.02-13.6,11.37-5.87,32.6-11.59,65.23-17.44,97.83-.54,3.07-.37,4.77,3.53,4.62,7-.28,14.01-.16,21.02-.03,2.55.04,3.53-.78,3.92-3.4,1.17-7.93,2.67-15.83,4.09-23.74.91-5.16,1.9-10.33,2.85-15.49,6.79,12.95,12.57,25.88,18.3,38.81.93,2.09,1.64,3.88,4.6,3.82,9.91-.17,19.8-.06,30.54-.06-1.12-2.22-1.76-3.59-2.48-4.91-7.6-13.75-15.15-27.54-22.88-41.21-1.73-3.07-1.51-4.38,2.21-4.91ZM729.85,527.8c-4.67,1.25-10.38,2.38-14.03.38-4.95-2.72-.04-8.26-.16-12.61-.08-2.84.86-5.72,1.37-8.57,1.76-9.97.11-7.84,9.59-8.13h.51c10.25.25,14.48,2.98,15.28,9.87.91,7.87-5.06,17.04-12.55,19.05Z"/>
    <path class="cls-2" d="M913.03,587.08c-6.17-35.33-12.31-70.68-18.36-106.05-.42-2.43-1.13-3.59-3.82-3.54-7.86.14-15.74.12-23.6.01-2.24-.04-3.34.91-4.32,2.78-18.84,35.83-37.7,71.65-56.63,107.44-1.33,2.53-1.31,3.71,1.98,3.59,3.93-.13,7.86-.03,11.8-.03,3.76.01,7.53-.21,11.27.07,3.09.23,4.58-1.04,5.77-3.76,2.81-6.42,6.04-12.64,8.85-19.05.98-2.22,2.17-3.04,4.59-3,8.55.13,17.1.14,25.65-.01,2.74-.04,3.92.66,4.15,3.6.46,5.95,1.45,11.87,2.03,17.81.3,2.99,1.11,4.57,4.66,4.42,7.51-.3,15.05-.26,22.57-.02,3.55.11,3.93-1.32,3.41-4.28ZM875.7,545.5c-5.63-.2-11.27-.04-16.91-.06-1.72-.01-3.77.25-2.43-2.67,6.2-13.58,12.36-27.17,18.85-41.44,1.38,14.03,2.61,27.2,4,40.35.32,2.95-.51,3.92-3.51,3.82Z"/>
    <path class="cls-2" d="M1368.25,477.55c11.11,0,22.23.05,33.34-.03,2.74-.02,4,.42,2.27,3.35-.95,1.6-1.89,3.34-2.25,5.14-2.5,12.38-10.13,15.92-22.05,14.16-6.69-.99-13.65-.09-20.49-.22-2.53-.05-3.58.7-3.93,3.34-.75,5.75-1.75,11.49-2.95,17.16-.55,2.6.07,3.17,2.62,3.14,9.91-.13,19.83.03,29.75-.11,2.92-.04,3.94.6,3.22,3.72-1.08,4.65-1.93,9.39-2.49,14.13-.34,2.94-1.7,3.6-4.36,3.57-9.74-.11-19.49.05-29.23-.1-2.91-.04-4.24.68-4.6,3.82-.65,5.59-1.7,11.15-2.83,16.68-.65,3.18.21,4.2,3.53,4.16,12.14-.16,24.28.05,36.41-.12,3.81-.05,5.59.3,3.24,4.58-3.03,5.52-4.33,12.99-8.81,16.41-4.36,3.33-11.87.9-17.99.94-15.04.11-30.09-.06-45.13.1-3.52.04-4.19-.85-3.55-4.35,6.37-35.29,12.59-70.61,18.69-105.95.5-2.89,1.57-3.6,4.26-3.57,11.11.11,22.23.05,33.34.05Z"/>
    <path class="cls-2" d="M1455.85,476c9.63-.12,18.51,2.4,26.93,6.93,2.66,1.44,3.94,2.69,2.04,5.84-2.73,4.52-5.07,9.29-7.38,14.05-1.11,2.3-2,2.34-4.2,1.05-7.56-4.43-15.35-8.34-24.6-5.77-2.86.79-5.34,2.21-7.41,4.33-7.34,7.49-5.57,14.88,4.41,18.2,5.96,1.98,12.08,3.51,17.93,5.77,15.19,5.88,20.1,16.83,15.07,32.36-7.95,24.5-31.99,36.61-55.49,34.26-9.97-1-18.82-4.42-26.81-10.42-2.6-1.96-3.54-3.49-1.4-6.59,3.49-5.05,6.55-10.41,9.62-15.74,1.38-2.4,2.31-2.55,4.43-.6,7.05,6.5,14.83,11.44,25.1,10.68,6.49-.48,13.46-5.55,15.46-11.72,1.66-5.15-.29-9.77-5.8-12.07-4.51-1.88-9.32-3.06-14.02-4.49-22.33-6.79-28.82-23.3-16.45-43.16,9.72-15.6,24.49-22.58,42.6-22.94Z"/>
    <path class="cls-2" d="M497.09,523.52c-3.02,7.09-5.77,13.3-8.3,19.61-.87,2.18-2.45,1.94-4.13,1.93-8.37,0-16.75.12-25.12-.07-2.95-.07-4.07.75-4.56,3.78-2.07,12.81-4.58,25.54-6.63,38.36-.51,3.2-1.58,4.34-4.83,4.23-6.66-.22-13.34-.28-19.99.01-4.12.18-4.4-1.62-3.81-4.9,3.91-21.67,7.71-43.36,11.56-65.04,2.33-13.1,4.8-26.18,6.92-39.32.58-3.62,1.91-4.69,5.58-4.66,21.36.19,42.72.15,64.08.03,3.56-.02,4.67.6,2.84,4.17-2.49,4.86-4.78,9.83-6.82,14.89-1.06,2.65-2.49,3.55-5.32,3.5-10.25-.17-20.51.09-30.75-.15-3.5-.08-4.79,1.07-5.16,4.46-.57,5.09-1.31,10.19-2.52,15.15-.95,3.91.79,4.09,3.82,4.06,10.76-.11,21.51-.04,33.14-.04Z"/>
    <path class="cls-2" d="M1096.1,591.3c-9.92,0-19.84-.1-29.76.05-3.44.05-4.75-.41-4-4.51,6.25-34.45,12.33-68.94,18.19-103.46.78-4.59,2.27-6.34,7.09-5.95,6.12.49,12.31.24,18.46.08,3.02-.08,4.26.42,3.61,3.97-4.94,27.05-9.65,54.15-14.51,81.22-1.1,6.16-1.22,6.14,5.1,6.14,11.63,0,23.26.09,34.89-.04,3.44-.04,4.83.43,2.9,4.15-2.51,4.85-4.72,9.87-6.81,14.91-1.07,2.59-2.55,3.56-5.4,3.52-9.92-.17-19.84-.06-29.75-.07Z"/>
    <path class="cls-1" d="M881.45,686.99c9.08-21.54,17.88-42.47,26.78-63.35.73-1.71.62-4.49,3.38-4.57,3.92-.11,7.88-.15,11.75.32,1.26.15.87,2.41.94,3.71,1.06,20.13,3.47,40.18,3.87,60.36,0,.23.39.44.74.81,7.47-19.47,15.15-38.75,22.17-58.27,2-5.56,4.56-8.16,10.48-7.1,1.82.32,3.74.05,6.32.05-3.42,8.25-6.62,16.08-9.91,23.87-7.98,18.88-16.22,37.66-23.88,56.67-1.89,4.7-4.35,5.94-9.04,5.68-6.99-.39-7.07-.1-7.53-7.08-1.32-20.2-2.6-40.41-3.86-60.21-8.38,20.2-17.1,40.73-25.32,61.46-1.84,4.64-4.15,6.11-8.92,5.84-6.92-.4-6.98-.09-7.49-6.99-1.85-25.07-3.6-50.14-5.56-75.19-.25-3.17.44-4.1,3.7-4.13,10.07-.07,10-.21,10.31,9.64.48,15.21,1.01,30.42,1.64,45.62.17,4.12-.03,8.19-.57,12.85Z"/>
    <path class="cls-2" d="M1177.24,477.54c.51,0,1.03-.04,1.54,0,4.03.33,9.49-1.79,11.67.91,1.66,2.05-.66,7.38-1.33,11.23-5.55,31.81-11.23,63.59-16.61,95.42-.79,4.68-2.17,6.78-7.35,6.31-6.11-.55-12.3-.22-18.45-.08-2.86.06-3.99-.6-3.41-3.79,6.39-35.47,12.7-70.94,18.89-106.45.49-2.83,1.53-3.75,4.28-3.61,3.58.19,7.18.05,10.77.05Z"/>
    <path class="cls-2" d="M932.96,591.29c-3.64-.6-9.7,2.16-12.24-1.18-2.22-2.92.7-8.44,1.47-12.8,5.59-31.78,11.25-63.54,16.76-95.34.56-3.21,1.55-4.68,5.14-4.52,6.65.31,13.35.39,19.99-.02,4.57-.28,3.94,2.04,3.43,4.89-3.95,22.01-7.87,44.03-11.78,66.05-2.27,12.78-4.69,25.54-6.61,38.37-.57,3.84-2.04,4.87-5.59,4.58-3.23-.26-6.49-.06-10.58-.06Z"/>
    <path class="cls-1" d="M1210,618.97c1.85,0,2.9.12,3.9-.02,3.65-.52,4.1,1.01,3.49,4.31-3.08,16.44-5.92,32.92-8.85,49.38-2.31,13.01.5,19.06,9.79,21.09,11.43,2.49,22.58-3.74,25.12-14.63,2.16-9.3,3.57-18.77,5.26-28.17,1.69-9.41,3.5-18.81,4.88-28.27.46-3.16,1.73-3.73,4.59-3.75,10.78-.06,10.72-.17,8.8,10.31-2.98,16.29-5.97,32.57-8.79,48.89-4.89,28.36-39.08,33.84-55.86,23.81-6.4-3.82-9.32-9.82-9.27-17.21.09-11.35,3.27-22.27,4.91-33.41,1.24-8.44,3.32-16.75,4.43-25.2.71-5.39,2.01-8.97,7.59-7.12Z"/>
    <path class="cls-1" d="M1086.62,617.09c-2.12,11.73-4.11,22.78-6.32,35,7.07-5.96,14.17-9.08,22.57-8.81,14.07.45,20.29,7.88,17.85,21.68-2.03,11.43-4.43,22.8-6.05,34.29-.68,4.79-2.35,6.23-7.07,5.95-7.04-.41-7.04-.09-5.82-6.91,1.84-10.25,3.8-20.47,5.41-30.75,1.43-9.11-2.28-13.11-11.53-13-10.32.12-16.68,5.52-18.42,15.51-1.79,10.25-3.81,20.47-5.45,30.74-.53,3.32-1.73,4.46-5.2,4.4-8.73-.16-8.67.05-7.1-8.76,3.91-22.02,7.93-44.02,11.5-66.1.85-5.25,2.42-8.82,7.91-10.11,2.45-.58,4.73-1.88,7.73-3.13Z"/>
    <path class="cls-1" d="M695.16,618.98c.12.91.2,1.1.15,1.24q-3.76,10.14-14.67,10.14c-5.81,0-11.63.14-17.44-.05-2.92-.1-4.26.7-4.68,3.81-.85,6.25-1.99,12.48-3.33,18.65-.64,2.93.28,3.52,2.96,3.48,7.35-.12,14.71.04,22.06-.07,2.88-.04,3.54.67,2.5,3.55-2.75,7.62-2.62,7.67-10.65,7.68-5.13,0-10.27.17-15.39-.07-3.06-.14-4.12.99-4.58,3.93-1.53,9.79-3.46,19.51-4.99,29.3-.54,3.46-1.79,4.73-5.54,4.64-10.01-.23-9.99,0-8.29-9.59,4.32-24.21,8.64-48.42,12.88-72.65.41-2.37.61-4.1,3.84-4.06,15.04.16,30.07.07,45.17.07Z"/>
    <path class="cls-1" d="M764.67,690.49c6.6-13.61,15.03-26.03,22-39.26,2.61-4.95,5.65-7.2,11.15-6.28,1.82.31,3.74.05,5.56.05,1.14,1.68-.25,2.67-.88,3.72-15,25.06-30.05,50.08-45.03,75.14-1.17,1.96-2.45,2.95-4.84,2.82-3.52-.2-7.06-.05-11.6-.05,4.23-6.78,7.8-12.91,11.8-18.74,1.83-2.67,2.03-5.01,1.29-8.05-4.06-16.57-7.79-33.23-11.94-49.78-1.06-4.23-.15-5.28,4.12-5.17,9.08.23,9.12.02,10.91,8.78,2.49,12.18,4.94,24.37,7.45,36.82Z"/>
    <path class="cls-1" d="M1295.7,707.1c-4.78.16-10.52-1.14-16.07-3.64-2.55-1.15-3.48-2.37-1.61-4.79.21-.27.32-.6.48-.91,1.03-1.97,1.58-4.68,3.21-5.71,2.17-1.38,3.46,1.86,5.38,2.72,6.82,3.04,13.53,3.56,20.17-.11,3.32-1.84,5.39-4.76,5.08-8.81-.31-4.02-3.5-5.13-6.6-6.19-4.02-1.38-8.3-1.94-12.15-3.89-8.6-4.37-11.04-12.23-6.07-20.55,5.85-9.81,15.31-12.51,25.92-12.27,4.77.11,9.46,1.08,13.89,3.12,2.29,1.05,2.85,1.96,1.66,4.59-2.1,4.64-3.89,7.03-9.51,3.79-4.75-2.74-10.49-3.07-15.78-.43-2.91,1.45-4.83,3.77-4.76,7.29.07,3.32,2.42,4.84,4.99,5.85,4.27,1.68,8.72,2.88,12.99,4.56,8.81,3.47,11.4,9.45,8.24,18.45-3.89,11.08-13.88,17.09-29.47,16.92Z"/>
    <path class="cls-1" d="M728.27,617.09c-4.35,24.78-8.54,48.64-12.73,72.51-.53,3.03-1.41,6.05-1.49,9.09-.13,5.22-2.34,6.91-7.56,6.53-6.73-.49-6.79-.12-5.68-6.38,3.93-22.2,8.23-44.34,11.62-66.63,1.09-7.14,3.66-11.53,10.69-13.15,1.47-.34,2.84-1.08,5.14-1.98Z"/>
    <path class="cls-1" d="M1041.72,626.19c-.84,5.02-1.48,10.09-2.59,15.05-.68,3.04.11,3.84,3.12,3.84,2.41,0,6.14-1.49,6.94.88.64,1.91-1.8,4.84-2.84,7.34-1.06,2.53-3.3,2.2-5.26,1.98-3.5-.4-4.65,1.12-5.19,4.46-2.22,13.62-4.67,27.21-7.22,40.77-.29,1.57.47,4.32-2.3,4.46-3.53.17-7.21.89-10.57-.47-1.33-.54-.28-2.51-.06-3.77,2.16-12.42,4.34-24.84,6.6-37.25,1.35-7.4,1.42-7.38-6.02-8.89,8.27-9.77,16.35-19.31,24.42-28.86.32.15.64.3.96.45Z"/>
    <path class="cls-1" d="M997.54,642.87c-3.09,17.63-6.01,34.23-8.92,50.84-.18,1.01-.39,2.01-.56,3.02-1.46,8.78-2.91,9.71-12.01,8.42-2.2-.31-2.46-1.27-2.14-3.05,3.08-17.13,6.14-34.27,9.19-51.41.27-1.52,1.1-2.37,2.5-2.92,3.63-1.44,7.23-2.96,11.94-4.89Z"/>
    <path class="cls-1" d="M994.84,622.21c4.21,0,6.68,2.47,6.65,6.65-.03,4.66-4.08,8.62-8.86,8.67-4.36.05-6.96-2.3-6.96-6.29,0-4.89,4.2-9.03,9.17-9.03Z"/>
  </g>
</svg>