<?xml version="1.0" encoding="UTF-8"?>
<svg id="Layer_1" data-name="Layer 1" xmlns="http://www.w3.org/2000/svg" version="1.1" viewBox="0 0 250 150">
  <defs>
    <style>
      .cls-1 {
        fill: #f69434;
        stroke-width: 0px;
      }
    </style>
  </defs>
  <path class="cls-1" d="M144.44,56.36c-.06,3.39-.74,6.25-1.54,9.08-2.22,7.89-5.55,15.33-9.42,22.51-2.95,5.48-6.23,10.79-9.3,16.21-1.19,2.11-2.66,4.11-3.11,6.57-.41,2.29.23,4.35,1.56,6.17.98,1.35,3.15,1.35,5.04.18,3.07-1.88,5.09-4.76,7.21-7.53,3.58-4.68,6.65-9.74,10.36-14.32,2.51-3.1,5.19-6,8.76-7.98,4.34-2.4,8.69-2.4,13.12-.39,3.82,1.73,7.04,4.16,8.86,8.08,1.04,2.23,1.07,4.6.89,6.99-.23,2.96-1.41,5.6-2.85,8.14-.68,1.2-1.15,1.24-2.19.32-1.43-1.26-2.72-2.72-4.44-3.6-3.24-1.64-7.16-.15-8.74,2.82-2.85,5.33-6.07,10.39-10.5,14.56-4.91,4.62-10.57,7.87-17.52,7.58-6.44-.27-12.62-1.95-17.77-6.04-5.05-4.01-6.54-9.5-5.8-15.75.46-3.91,2.32-7.26,4.03-10.69,1.25-2.52,2.55-5.01,3.77-7.54.35-.73.34-1.35-.65-1.79-4.83-2.17-9.63-4.42-14.43-6.65-2.81-1.31-5.31-3-6.79-5.85-.99-1.9-1.46-3.95-1.59-6.07-.1-1.62,0-3.25-.05-4.88-.03-.98.32-1.08,1.14-.71,5.59,2.58,11.19,5.14,16.79,7.7,3.48,1.59,6.97,3.17,10.46,4.74.88.39,1.65.48,2.08-.7.31-.84.81-1.61,1.2-2.42.3-.64.07-1.03-.58-1.33-4.76-2.15-9.51-4.31-14.24-6.5-6.07-2.81-12.11-5.68-18.18-8.48-3.14-1.45-5.71-3.44-7.06-6.75-.58-1.41-.93-2.88-1.04-4.37-.14-1.88-.07-3.78-.08-5.67,0-.7.08-1.07.99-.64,4.79,2.25,9.62,4.43,14.44,6.63,3.01,1.37,5.98,2.83,9.04,4.06,4.45,1.8,8.6,4.2,13.05,5.99,2.37.95,4.65,2.1,6.97,3.18.24.11.46.31.72.08.22-.2.24-.48.14-.74-.3-.77-.28-1.79-1.48-1.86-.28-.02-.35-.3-.35-.51.06-1.4-.92-2.06-1.9-2.72-2.42-1.62-5.16-2.61-7.77-3.84-7.43-3.5-14.9-6.96-22.43-10.23-1.6-.69-3.18-1.48-4.75-2.2-1.44-.66-2.88-1.41-4.34-2.06-2.05-.92-4.09-1.87-5.92-3.14-2.48-1.72-4.01-4.16-4.59-7.19-.47-2.47-.49-4.96-.58-7.45-.04-1.11.37-1.44,1.36-.97,5.41,2.53,10.89,4.9,16.26,7.52,4.59,2.24,9.27,4.3,13.92,6.43,5.8,2.65,11.59,5.3,17.4,7.92,6.34,2.86,12.69,5.69,19.03,8.55,1.54.7,2.52,1.98,2.86,3.57.31,1.42.7,2.88.54,3.96Z"/>
</svg>