<?xml version="1.0" encoding="UTF-8"?>
<svg id="Layer_1" data-name="Layer 1" xmlns="http://www.w3.org/2000/svg" version="1.1" viewBox="0 0 250 150">
  <defs>
    <style>
      .cls-1 {
        fill: #2b2d60;
      }

      .cls-1, .cls-2, .cls-3, .cls-4, .cls-5, .cls-6 {
        stroke-width: 0px;
      }

      .cls-2 {
        fill: #292b5f;
      }

      .cls-3 {
        fill: #2a2b5f;
      }

      .cls-4 {
        fill: #292a60;
      }

      .cls-5 {
        fill: #292b60;
      }

      .cls-6 {
        fill: #2a2b60;
      }
    </style>
  </defs>
  <path class="cls-4" d="M68.97,50.23c-1.3.03-2.6.05-3.9,0-.77-.04-1.04.19-1.17.98-.84,5.02-1.73,10.03-2.65,15.04-.46,2.49-2.22,3.08-4.15,1.45-.08-.07-.17-.12-.23-.2-.37-.44-.65-.44-1.01.06-.71.95-1.49,1.85-2.26,2.79-.29-.33-.28-.67-.34-.99-1.06-6.06-2.12-12.12-3.15-18.18-.12-.7-.33-.99-1.09-.95-1.4.07-2.8.05-4.21,0-.6-.02-.9.19-1.18.72-3.69,7.06-7.4,14.1-11.11,21.15-.14.26-.39.49-.27.9,1.73,0,3.47-.02,5.21.01.57.01.86-.18,1.08-.69.56-1.28,1.18-2.54,1.76-3.82.2-.45.45-.67.99-.66,1.71.04,3.42.04,5.13,0,.6-.02.75.24.8.75.13,1.22.33,2.44.43,3.66.05.57.26.76.82.75,1.26-.03,2.53,0,3.8,0q1.51,0,1.38-1.44c0-.11-.08-.28.12-.32,2.7,1.86,3.84,2.25,6.32,2.2,2.99-.06,5.93-2.17,6.42-4.81,1.09-5.88,2.09-11.78,3.14-17.66.11-.65-.15-.74-.7-.73ZM46.36,63.83c-1.16-.02-2.32-.02-3.48,0-.52,0-.68-.1-.44-.63,1.23-2.66,2.44-5.32,3.73-8.15.28,2.81.53,5.45.83,8.09.07.58-.12.71-.65.7Z"/>
  <path class="cls-4" d="M180.23,57.33c-.33,3.7-1.1,7.03-1.62,10.41-.22,1.38-.53,2.76-.66,4.15-.09.97-.52,1.17-1.37,1.12-1.06-.06-2.12-.01-3.18-.02-1.24,0-1.25,0-1.04-1.19.98-5.52,1.97-11.03,2.95-16.55.25-1.41.52-2.83.71-4.25.08-.61.32-.79.92-.77,1.47.04,2.94.03,4.41,0,.52-.01.79.17,1.01.64,1.96,4.21,3.95,8.41,5.93,12.62.38.81.55,1.68.83,2.56.18-1.04.24-2.08.43-3.11.7-3.97,1.38-7.95,2.02-11.93.1-.6.29-.8.9-.78,1.3.05,2.6.06,3.9,0,.79-.04.9.24.77.95-.99,5.52-1.95,11.04-2.92,16.56-.26,1.48-.55,2.95-.79,4.44-.1.6-.31.87-.98.85-1.43-.06-2.87-.04-4.31,0-.54.01-.85-.13-1.1-.66-1.97-4.17-3.98-8.32-5.95-12.5-.34-.72-.52-1.52-.85-2.51Z"/>
  <path class="cls-4" d="M140.82,62.77c2.87-.49,5.09-2.71,5.67-5.61.91-4.56-1.01-6.93-5.61-6.93-2.77,0-5.54.02-8.31-.01-.73-.01-1.05.14-1.19.95-1.2,7.04-2.45,14.07-3.72,21.09-.12.68.14.74.67.73,1.37-.02,2.74-.04,4.1,0,.65.02.87-.2.97-.84.42-2.56.91-5.1,1.37-7.65.07,0,.14,0,.21,0,.93,2.08,2.02,4.12,2.75,6.27.62,1.83,1.6,2.5,3.5,2.25,1.35-.18,2.75-.03,4.26-.03-.23-.43-.34-.67-.47-.91-1.54-2.78-3.07-5.56-4.64-8.33-.35-.61-.31-.86.43-.99ZM138.52,60.34c-.74.11-1.5.06-2.25.12-.59.05-.8-.15-.68-.76.3-1.54.56-3.09.81-4.64.07-.44.28-.57.69-.55.34.02.68,0,1.03,0h0c.07,0,.14,0,.21,0,2.03.06,2.91.66,2.99,2.04.1,1.78-1.16,3.54-2.78,3.79Z"/>
  <path class="cls-4" d="M82.49,62.78c2.55-.36,4.19-1.96,5.2-4.17,2.19-4.82-.12-8.37-5.36-8.37-2.26,0-4.51,0-6.77,0-2.28,0-2.31,0-2.72,2.27-1.17,6.52-2.32,13.05-3.49,19.57-.11.61-.07.95.71.92,1.4-.06,2.8-.03,4.2,0,.51,0,.71-.16.78-.68.23-1.59.53-3.17.82-4.75.18-1.03.38-2.07.57-3.1,1.36,2.59,2.52,5.18,3.66,7.76.19.42.33.78.92.76,1.98-.03,3.96-.01,6.11-.01-.22-.44-.35-.72-.5-.98-1.52-2.75-3.03-5.51-4.58-8.24-.35-.61-.3-.88.44-.98ZM80.44,60.29c-.93.25-2.08.48-2.81.08-.99-.54,0-1.65-.03-2.52-.02-.57.17-1.14.27-1.71.35-1.99.02-1.57,1.92-1.63h.1c2.05.05,2.9.6,3.06,1.98.18,1.57-1.01,3.41-2.51,3.81Z"/>
  <path class="cls-4" d="M117.08,72.15c-1.23-7.07-2.46-14.14-3.67-21.21-.08-.49-.23-.72-.76-.71-1.57.03-3.15.02-4.72,0-.45,0-.67.18-.86.56-3.77,7.17-7.54,14.33-11.33,21.49-.27.51-.26.74.4.72.79-.03,1.57,0,2.36,0,.75,0,1.51-.04,2.25.01.62.05.92-.21,1.15-.75.56-1.28,1.21-2.53,1.77-3.81.2-.44.43-.61.92-.6,1.71.03,3.42.03,5.13,0,.55,0,.78.13.83.72.09,1.19.29,2.37.41,3.56.06.6.22.91.93.88,1.5-.06,3.01-.05,4.51,0,.71.02.79-.26.68-.86ZM109.62,63.83c-1.13-.04-2.25,0-3.38-.01-.34,0-.75.05-.49-.53,1.24-2.72,2.47-5.43,3.77-8.29.28,2.81.52,5.44.8,8.07.06.59-.1.78-.7.76Z"/>
  <path class="cls-4" d="M208.14,50.24c2.22,0,4.45.01,6.67,0,.55,0,.8.08.45.67-.19.32-.38.67-.45,1.03-.5,2.48-2.03,3.18-4.41,2.83-1.34-.2-2.73-.02-4.1-.04-.51-.01-.72.14-.79.67-.15,1.15-.35,2.3-.59,3.43-.11.52.01.63.53.63,1.98-.03,3.97,0,5.95-.02.58,0,.79.12.64.74-.22.93-.39,1.88-.5,2.83-.07.59-.34.72-.87.71-1.95-.02-3.9,0-5.85-.02-.58,0-.85.14-.92.76-.13,1.12-.34,2.23-.57,3.34-.13.64.04.84.71.83,2.43-.03,4.86,0,7.28-.02.76-.01,1.12.06.65.92-.61,1.1-.87,2.6-1.76,3.28-.87.67-2.37.18-3.6.19-3.01.02-6.02-.01-9.03.02-.7,0-.84-.17-.71-.87,1.27-7.06,2.52-14.12,3.74-21.19.1-.58.31-.72.85-.71,2.22.02,4.45,0,6.67.01Z"/>
  <path class="cls-4" d="M225.66,49.93c1.93-.02,3.7.48,5.39,1.39.53.29.79.54.41,1.17-.55.9-1.01,1.86-1.48,2.81-.22.46-.4.47-.84.21-1.51-.89-3.07-1.67-4.92-1.15-.57.16-1.07.44-1.48.87-1.47,1.5-1.11,2.98.88,3.64,1.19.4,2.42.7,3.59,1.15,3.04,1.18,4.02,3.37,3.01,6.47-1.59,4.9-6.4,7.32-11.1,6.85-1.99-.2-3.77-.88-5.36-2.08-.52-.39-.71-.7-.28-1.32.7-1.01,1.31-2.08,1.92-3.15.28-.48.46-.51.89-.12,1.41,1.3,2.97,2.29,5.02,2.14,1.3-.1,2.69-1.11,3.09-2.34.33-1.03-.06-1.95-1.16-2.41-.9-.38-1.86-.61-2.8-.9-4.47-1.36-5.77-4.66-3.29-8.63,1.94-3.12,4.9-4.52,8.52-4.59Z"/>
  <path class="cls-4" d="M33.89,59.43c-.6,1.42-1.15,2.66-1.66,3.92-.17.44-.49.39-.83.39-1.67,0-3.35.02-5.02-.01-.59-.01-.81.15-.91.76-.41,2.56-.92,5.11-1.33,7.67-.1.64-.32.87-.97.85-1.33-.04-2.67-.06-4,0-.82.04-.88-.32-.76-.98.78-4.33,1.54-8.67,2.31-13.01.47-2.62.96-5.24,1.38-7.86.12-.72.38-.94,1.12-.93,4.27.04,8.54.03,12.82,0,.71,0,.93.12.57.83-.5.97-.96,1.97-1.36,2.98-.21.53-.5.71-1.07.7-2.05-.03-4.1.02-6.15-.03-.7-.02-.96.21-1.03.89-.11,1.02-.26,2.04-.5,3.03-.19.78.16.82.76.81,2.15-.02,4.3,0,6.63,0Z"/>
  <path class="cls-4" d="M153.7,72.99c-1.98,0-3.97-.02-5.95.01-.69.01-.95-.08-.8-.9,1.25-6.89,2.47-13.79,3.64-20.69.16-.92.45-1.27,1.42-1.19,1.22.1,2.46.05,3.69.02.6-.02.85.08.72.79-.99,5.41-1.93,10.83-2.9,16.25-.22,1.23-.24,1.23,1.02,1.23,2.33,0,4.65.02,6.98,0,.69,0,.97.09.58.83-.5.97-.94,1.97-1.36,2.98-.21.52-.51.71-1.08.7-1.98-.03-3.97-.01-5.95-.01Z"/>
  <path class="cls-4" d="M110.77,92.13c1.82-4.31,3.58-8.49,5.36-12.67.15-.34.12-.9.68-.91.78-.02,1.58-.03,2.35.06.25.03.17.48.19.74.21,4.03.69,8.04.77,12.07,0,.05.08.09.15.16,1.49-3.89,3.03-7.75,4.43-11.65.4-1.11.91-1.63,2.1-1.42.36.06.75.01,1.26.01-.68,1.65-1.32,3.22-1.98,4.77-1.6,3.78-3.24,7.53-4.78,11.34-.38.94-.87,1.19-1.81,1.14-1.4-.08-1.41-.02-1.51-1.42-.26-4.04-.52-8.08-.77-12.04-1.68,4.04-3.42,8.15-5.06,12.29-.37.93-.83,1.22-1.78,1.17-1.38-.08-1.4-.02-1.5-1.4-.37-5.01-.72-10.03-1.11-15.04-.05-.63.09-.82.74-.83,2.02-.01,2-.04,2.06,1.93.1,3.04.2,6.08.33,9.13.03.82,0,1.64-.11,2.57Z"/>
  <path class="cls-4" d="M169.93,50.24c.1,0,.21,0,.31,0,.81.07,1.9-.36,2.34.18.33.41-.13,1.48-.27,2.25-1.11,6.36-2.25,12.72-3.32,19.09-.16.94-.43,1.36-1.47,1.26-1.22-.11-2.46-.04-3.69-.02-.57.01-.8-.12-.68-.76,1.28-7.09,2.54-14.19,3.78-21.29.1-.57.31-.75.86-.72.72.04,1.44,0,2.15,0Z"/>
  <path class="cls-4" d="M121.07,72.99c-.73-.12-1.94.43-2.45-.24-.44-.58.14-1.69.29-2.56,1.12-6.36,2.25-12.71,3.35-19.07.11-.64.31-.94,1.03-.9,1.33.06,2.67.08,4,0,.91-.06.79.41.69.98-.79,4.4-1.57,8.81-2.36,13.21-.45,2.56-.94,5.11-1.32,7.68-.11.77-.41.97-1.12.92-.65-.05-1.3-.01-2.12-.01Z"/>
  <path class="cls-4" d="M176.48,78.53c.37,0,.58.02.78,0,.73-.1.82.2.7.86-.62,3.29-1.18,6.58-1.77,9.88-.46,2.6.1,3.81,1.96,4.22,2.29.5,4.52-.75,5.02-2.93.43-1.86.71-3.75,1.05-5.64.34-1.88.7-3.76.98-5.65.09-.63.35-.75.92-.75,2.16-.01,2.14-.03,1.76,2.06-.6,3.26-1.19,6.51-1.76,9.78-.98,5.67-7.82,6.77-11.17,4.76-1.28-.76-1.86-1.96-1.85-3.44.02-2.27.65-4.45.98-6.68.25-1.69.66-3.35.89-5.04.14-1.08.4-1.79,1.52-1.43Z"/>
  <path class="cls-5" d="M151.81,78.15c-.42,2.35-.82,4.56-1.26,7,1.41-1.19,2.83-1.82,4.51-1.76,2.81.09,4.06,1.58,3.57,4.34-.41,2.29-.89,4.56-1.21,6.86-.14.96-.47,1.25-1.41,1.19-1.41-.08-1.41-.02-1.16-1.38.37-2.05.76-4.09,1.08-6.15.29-1.82-.46-2.62-2.31-2.6-2.06.02-3.34,1.1-3.68,3.1-.36,2.05-.76,4.09-1.09,6.15-.11.66-.35.89-1.04.88-1.75-.03-1.73.01-1.42-1.75.78-4.4,1.59-8.81,2.3-13.22.17-1.05.48-1.76,1.58-2.02.49-.12.95-.38,1.55-.63Z"/>
  <path class="cls-2" d="M73.5,78.53c.02.18.04.22.03.25q-.75,2.03-2.94,2.03c-1.16,0-2.33.03-3.49-.01-.58-.02-.85.14-.94.76-.17,1.25-.4,2.5-.67,3.73-.13.59.06.7.59.7,1.47-.02,2.94,0,4.41-.01.58,0,.71.13.5.71-.55,1.53-.52,1.53-2.13,1.54-1.03,0-2.05.03-3.08-.01-.61-.03-.82.2-.92.79-.31,1.96-.69,3.9-1,5.86-.11.69-.36.95-1.11.93-2-.05-2,0-1.66-1.92.86-4.84,1.73-9.69,2.58-14.53.08-.47.12-.82.77-.81,3.01.03,6.02.01,9.03.01Z"/>
  <path class="cls-2" d="M87.41,92.83c1.32-2.72,3.01-5.21,4.4-7.85.52-.99,1.13-1.44,2.23-1.26.36.06.75,0,1.11,0,.23.34-.05.53-.18.74-3,5.01-6.01,10.02-9.01,15.03-.23.39-.49.59-.97.56-.7-.04-1.41-.01-2.32-.01.85-1.36,1.56-2.58,2.36-3.75.37-.53.41-1,.26-1.61-.81-3.31-1.56-6.65-2.39-9.96-.21-.85-.03-1.06.82-1.03,1.82.05,1.82,0,2.18,1.76.5,2.44.99,4.87,1.49,7.36Z"/>
  <path class="cls-2" d="M193.62,96.15c-.96.03-2.1-.23-3.21-.73-.51-.23-.7-.47-.32-.96.04-.05.06-.12.1-.18.21-.39.32-.94.64-1.14.43-.28.69.37,1.08.54,1.36.61,2.71.71,4.03-.02.66-.37,1.08-.95,1.02-1.76-.06-.8-.7-1.03-1.32-1.24-.8-.28-1.66-.39-2.43-.78-1.72-.87-2.21-2.45-1.21-4.11,1.17-1.96,3.06-2.5,5.19-2.45.95.02,1.89.22,2.78.62.46.21.57.39.33.92-.42.93-.78,1.41-1.9.76-.95-.55-2.1-.61-3.16-.09-.58.29-.97.75-.95,1.46.01.66.48.97,1,1.17.85.34,1.74.58,2.6.91,1.76.69,2.28,1.89,1.65,3.69-.78,2.22-2.78,3.42-5.89,3.39Z"/>
  <path class="cls-5" d="M80.13,78.15c-.87,4.96-1.71,9.73-2.55,14.5-.11.61-.28,1.21-.3,1.82-.03,1.04-.47,1.38-1.51,1.31-1.35-.1-1.36-.02-1.14-1.28.79-4.44,1.65-8.87,2.32-13.33.22-1.43.73-2.31,2.14-2.63.29-.07.57-.22,1.03-.4Z"/>
  <path class="cls-3" d="M142.82,79.97c-.17,1-.3,2.02-.52,3.01-.14.61.02.77.62.77.48,0,1.23-.3,1.39.18.13.38-.36.97-.57,1.47-.21.51-.66.44-1.05.4-.7-.08-.93.22-1.04.89-.44,2.72-.93,5.44-1.44,8.15-.06.31.09.86-.46.89-.71.03-1.44.18-2.11-.09-.27-.11-.06-.5-.01-.75.43-2.48.87-4.97,1.32-7.45.27-1.48.28-1.48-1.2-1.78,1.65-1.95,3.27-3.86,4.89-5.77.06.03.13.06.19.09Z"/>
  <path class="cls-6" d="M133.99,83.31c-.62,3.53-1.2,6.85-1.78,10.17-.04.2-.08.4-.11.6-.29,1.76-.58,1.94-2.4,1.68-.44-.06-.49-.25-.43-.61.62-3.43,1.23-6.85,1.84-10.28.05-.3.22-.47.5-.58.73-.29,1.45-.59,2.39-.98Z"/>
  <path class="cls-1" d="M133.45,79.17c.84,0,1.34.49,1.33,1.33,0,.93-.82,1.72-1.77,1.73-.87,0-1.39-.46-1.39-1.26,0-.98.84-1.81,1.83-1.81Z"/>
</svg>